<svg id="Capa_1" enable-background="new 0 0 512 512" height="512" viewBox="0 0 512 512" width="512" xmlns="http://www.w3.org/2000/svg"><g><path d="m469.796 239.157h14.852l-2.756-17.414c-.358-2.264-9.372-56.085-61.247-111.292-48.01-51.094-117.979-80.398-191.965-80.398h-7.886c-58.976 0-114.423 22.967-156.125 64.67-41.702 41.702-64.669 97.149-64.669 156.126v10.303c0 58.977 22.967 114.423 64.67 156.125 41.702 41.703 97.149 64.67 156.125 64.67h275.582l15.623-149.735s-13.971-47.718-42.204-93.055zm5.734 79.351h-90.663l-47.602-79.351h96.362c20.8 29.224 34.498 60.1 41.903 79.351zm-173.391-79.351 47.603 79.351h-1.447c-23.058 0-44.718-11.278-57.942-30.167l-34.427-49.183h46.213zm167.096 212.669h-248.44c-105.138 0-190.674-85.536-190.674-190.675v-10.303c0-105.138 85.536-190.675 190.674-190.675h7.886c65.706 0 127.673 25.844 170.013 70.903 28.362 30.183 42.155 59.918 48.508 77.96h-249.127l67.603 96.575c18.854 26.935 49.739 43.016 82.616 43.016h131.708z"/><path d="m412.517 383.688h28.205v30.12h-28.205z"/><path d="m351.762 383.688h28.206v30.12h-28.206z"/></g></svg>